<svg height="512pt" viewBox="0 0 512.01016 512" width="512pt" xmlns="http://www.w3.org/2000/svg"><path d="m256.003906 204.808594c-4.710937 0-8.535156-3.824219-8.535156-8.535156v-34.132813c0-4.710937 3.824219-8.535156 8.535156-8.535156 4.707032 0 8.53125 3.824219 8.53125 8.535156v34.132813c0 4.710937-3.824218 8.535156-8.53125 8.535156zm0-76.800782c-4.710937 0-8.535156-3.824218-8.535156-8.535156v-34.132812c0-4.710938 3.824219-8.53125 8.535156-8.53125 4.707032 0 8.53125 3.820312 8.53125 8.53125v34.132812c0 4.710938-3.824218 8.535156-8.53125 8.535156zm0-76.800781c-4.710937 0-8.535156-3.824219-8.535156-8.53125v-34.136719c0-4.707031 3.824219-8.5312495 8.535156-8.5312495 4.707032 0 8.53125 3.8242185 8.53125 8.5312495v34.136719c0 4.707031-3.824218 8.53125-8.53125 8.53125zm0 0"/><path d="m8.542969 512.007812c-2.78125 0-5.503907-1.355468-7.140625-3.859374-2.585938-3.941407-1.4843752-9.230469 2.457031-11.808594l28.542969-18.722656c3.941406-2.601563 9.226562-1.484376 11.820312 2.457031 2.585938 3.945312 1.484375 9.234375-2.457031 11.8125l-28.546875 18.722656c-1.441406.945313-3.070312 1.398437-4.675781 1.398437zm64.222656-42.128906c-2.78125 0-5.503906-1.359375-7.140625-3.859375-2.585938-3.933593-1.488281-9.230469 2.457031-11.808593l28.535157-18.722657c3.941406-2.601562 9.222656-1.484375 11.816406 2.457031 2.585937 3.933594 1.488281 9.234376-2.457032 11.8125l-28.535156 18.722657c-1.449218.953125-3.070312 1.398437-4.675781 1.398437zm64.214844-42.121094c-2.78125 0-5.503907-1.355468-7.144531-3.855468-2.585938-3.9375-1.484376-9.234375 2.457031-11.8125l25.167969-16.511719c3.941406-2.59375 9.222656-1.492187 11.816406 2.457031 2.585937 3.933594 1.484375 9.234375-2.457032 11.8125l-25.164062 16.511719c-1.453125.945313-3.074219 1.398437-4.675781 1.398437zm0 0"/><path d="m503.460938 512.007812c-1.605469 0-3.226563-.453124-4.667969-1.398437l-28.542969-18.722656c-3.945312-2.585938-5.042969-7.867188-2.460938-11.8125 2.585938-3.941407 7.878907-5.050781 11.820313-2.457031l28.542969 18.722656c3.945312 2.585937 5.042968 7.867187 2.457031 11.808594-1.644531 2.503906-4.367187 3.859374-7.148437 3.859374zm-64.214844-42.128906c-1.601563 0-3.226563-.453125-4.675782-1.398437l-28.535156-18.722657c-3.941406-2.585937-5.042968-7.878906-2.457031-11.8125 2.585937-3.941406 7.875-5.050781 11.816406-2.457031l28.539063 18.722657c3.941406 2.585937 5.042968 7.875 2.457031 11.808593-1.640625 2.511719-4.371094 3.859375-7.144531 3.859375zm-64.222656-42.121094c-1.601563 0-3.222657-.453124-4.675782-1.398437l-25.164062-16.511719c-3.941406-2.585937-5.042969-7.878906-2.457032-11.8125 2.585938-3.941406 7.875-5.042968 11.820313-2.457031l25.164063 16.511719c3.941406 2.585937 5.042968 7.875 2.457031 11.8125-1.628907 2.5-4.359375 3.855468-7.144531 3.855468zm0 0"/><path d="m42.667969 435.207031c-2.183594 0-4.367188-.835937-6.03125-2.5l-34.132813-34.132812c-3.339844-3.335938-3.339844-8.730469 0-12.066407 3.328125-3.335937 8.738282-3.335937 12.066406 0l34.132813 34.132813c3.335937 3.335937 3.335937 8.730469 0 12.066406-1.664063 1.664063-3.851563 2.5-6.035156 2.5zm0 0"/><path d="m8.535156 435.207031c-2.183594 0-4.367187-.835937-6.03125-2.5-3.339844-3.335937-3.339844-8.730469 0-12.066406l34.132813-34.132813c3.328125-3.335937 8.738281-3.335937 12.066406 0 3.335937 3.335938 3.335937 8.730469 0 12.066407l-34.132813 34.132812c-1.664062 1.664063-3.851562 2.5-6.035156 2.5zm0 0"/><path d="m469.335938 435.207031c-2.183594 0-4.371094-.835937-6.035157-2.5-3.335937-3.335937-3.335937-8.730469 0-12.066406l34.136719-34.132813c3.328125-3.335937 8.738281-3.335937 12.0625 0 3.339844 3.335938 3.339844 8.730469 0 12.066407l-34.132812 34.132812c-1.664063 1.664063-3.847657 2.5-6.03125 2.5zm0 0"/><path d="m503.46875 435.207031h-34.132812c-4.710938 0-8.535157-3.824219-8.535157-8.53125 0-4.710937 3.824219-8.535156 8.535157-8.535156h34.132812c4.710938 0 8.535156 3.824219 8.535156 8.535156 0 4.707031-3.824218 8.53125-8.535156 8.53125zm0 0"/><path d="m503.46875 401.074219h-34.132812c-4.710938 0-8.535157-3.824219-8.535157-8.535157 0-4.707031 3.824219-8.53125 8.535157-8.53125h34.132812c4.710938 0 8.535156 3.824219 8.535156 8.53125 0 4.710938-3.824218 8.535157-8.535156 8.535157zm0 0"/><path d="m196.269531 68.273438c-4.710937 0-8.535156-3.824219-8.535156-8.53125v-34.136719c0-4.707031 3.824219-8.53125 8.535156-8.53125 4.710938 0 8.53125 3.824219 8.53125 8.53125v34.136719c0 4.707031-3.820312 8.53125-8.53125 8.53125zm0 0"/><path d="m196.269531 34.140625c-2.183593 0-4.371093-.835937-6.035156-2.5-3.335937-3.335937-3.335937-8.730469 0-12.066406l17.066406-17.066407c3.328125-3.335937 8.738281-3.335937 12.066407 0 3.335937 3.335938 3.335937 8.730469 0 12.066407l-17.066407 17.066406c-1.664062 1.664063-3.847656 2.5-6.03125 2.5zm0 0"/><path d="m196.269531 34.140625c-2.183593 0-4.371093-.835937-6.035156-2.5l-17.066406-17.066406c-3.335938-3.335938-3.335938-8.730469 0-12.066407 3.328125-3.335937 8.738281-3.335937 12.066406 0l17.066406 17.066407c3.335938 3.335937 3.335938 8.730469 0 12.066406-1.664062 1.664063-3.847656 2.5-6.03125 2.5zm0 0"/><path d="m256.003906 366.941406c-1.734375 0-3.464844-.53125-4.941406-1.578125l-93.867188-66.628906c-2.304687-1.628906-3.644531-4.300781-3.59375-7.117187.050782-2.816407 1.503907-5.4375 3.859376-6.980469l93.863281-61.371094c2.84375-1.859375 6.503906-1.859375 9.34375 0l93.867187 61.371094c2.363282 1.542969 3.808594 4.15625 3.859375 6.980469.050781 2.824218-1.289062 5.488281-3.59375 7.117187l-93.867187 66.628906c-1.46875 1.046875-3.199219 1.578125-4.929688 1.578125zm-78.714844-74.871094 78.714844 55.875 78.71875-55.875-78.71875-51.464843zm0 0"/><path d="m256.003906 477.875c-1.742187 0-3.464844-.53125-4.941406-1.578125l-93.867188-66.628906c-2.253906-1.597657-3.59375-4.183594-3.59375-6.957031v-110.933594c0-3.191406 1.785157-6.117188 4.617188-7.585938 2.832031-1.476562 6.246094-1.226562 8.859375.625l93.863281 66.628906c2.253906 1.601563 3.59375 4.195313 3.59375 6.960938v110.933594c0 3.191406-1.78125 6.117187-4.617187 7.585937-1.226563.632813-2.574219.949219-3.914063.949219zm-85.335937-79.566406 76.800781 54.511718v-90l-76.800781-54.511718zm0 0"/><path d="m256.003906 477.875c-1.339844 0-2.679687-.316406-3.917968-.949219-2.832032-1.46875-4.617188-4.394531-4.617188-7.585937v-110.933594c0-2.765625 1.339844-5.359375 3.59375-6.953125l93.867188-66.628906c2.601562-1.851563 6.015624-2.097657 8.855468-.621094 2.832032 1.464844 4.617188 4.382813 4.617188 7.574219v110.933594c0 2.765624-1.339844 5.359374-3.59375 6.957031l-93.867188 66.628906c-1.464844 1.046875-3.199218 1.578125-4.9375 1.578125zm8.53125-115.054688v90l76.800782-54.511718v-90.007813zm0 0"/></svg>